<svg id="Layer_1" data-name="Layer 1" xmlns="http://www.w3.org/2000/svg" xmlns:xlink="http://www.w3.org/1999/xlink" viewBox="0 0 372.04 372.01"><defs><style>.cls-1{fill:none;}.cls-2{clip-path:url(#clip-path);}.cls-3{isolation:isolate;}.cls-4{clip-path:url(#clip-path-2);}.cls-5{clip-path:url(#clip-path-3);}.cls-6{clip-path:url(#clip-path-4);}.cls-7{fill:#1f354a;}.cls-8{clip-path:url(#clip-path-7);}.cls-9{fill:#ac519f;}.cls-10{clip-path:url(#clip-path-10);}.cls-11{fill:#ef474d;}.cls-12{clip-path:url(#clip-path-13);}.cls-13{fill:#fecb58;}.cls-14{clip-path:url(#clip-path-16);}.cls-15{fill:#63bc46;}.cls-16{clip-path:url(#clip-path-19);}.cls-17{fill:#24a9dc;}.cls-18{fill:#fff;}</style><clipPath id="clip-path" transform="translate(-134.55 -117.6)"><rect class="cls-1" x="133.55" y="116.64" width="373.97" height="373.97"/></clipPath><clipPath id="clip-path-2" transform="translate(-134.55 -117.6)"><rect class="cls-1" x="111.55" y="117.6" width="414" height="383"/></clipPath><clipPath id="clip-path-3" transform="translate(-134.55 -117.6)"><rect class="cls-1" x="133.55" y="116.6" width="374" height="374"/></clipPath><clipPath id="clip-path-4" transform="translate(-134.55 -117.6)"><rect class="cls-1" x="308.55" y="117.6" width="12" height="54"/></clipPath><clipPath id="clip-path-7" transform="translate(-134.55 -117.6)"><rect class="cls-1" x="296.55" y="117.6" width="16" height="55"/></clipPath><clipPath id="clip-path-10" transform="translate(-134.55 -117.6)"><rect class="cls-1" x="250.55" y="118.6" width="54" height="62"/></clipPath><clipPath id="clip-path-13" transform="translate(-134.55 -117.6)"><rect class="cls-1" x="200.55" y="130.6" width="71" height="72"/></clipPath><clipPath id="clip-path-16" transform="translate(-134.55 -117.6)"><rect class="cls-1" x="111.55" y="160.6" width="250" height="340"/></clipPath><clipPath id="clip-path-19" transform="translate(-134.55 -117.6)"><rect class="cls-1" x="320.55" y="117.6" width="205" height="368"/></clipPath></defs><title>ring</title><g class="cls-2"><g class="cls-3"><g class="cls-4"><g class="cls-5"><g class="cls-3"><g class="cls-6"><g class="cls-5"><path class="cls-7" d="M320.55,170.69V117.6c-3.93,0-7.87.13-11.79.38l3.36,53q4.22-.27,8.43-.27" transform="translate(-134.55 -117.6)"/></g></g></g></g><g class="cls-5"><g class="cls-3"><g class="cls-8"><g class="cls-5"><path class="cls-9" d="M312.12,171l-3.36-53q-5.89.38-11.75,1.12l6.72,52.66q4.18-.52,8.39-.8" transform="translate(-134.55 -117.6)"/></g></g></g></g><g class="cls-5"><g class="cls-3"><g class="cls-10"><g class="cls-5"><path class="cls-11" d="M303.73,171.76,297,119.1a185.75,185.75,0,0,0-45.59,11.83l19.73,49.28a133.49,133.49,0,0,1,32.58-8.45" transform="translate(-134.55 -117.6)"/></g></g></g></g><g class="cls-5"><g class="cls-3"><g class="cls-12"><g class="cls-5"><path class="cls-13" d="M271.15,180.21l-19.73-49.28A185.79,185.79,0,0,0,201,161.12l34.13,40.67a133,133,0,0,1,36-21.58" transform="translate(-134.55 -117.6)"/></g></g></g></g><g class="cls-5"><g class="cls-3"><g class="cls-14"><g class="cls-5"><path class="cls-15" d="M235.12,201.79,201,161.12c-78.69,66-88.95,183.35-22.92,262A186,186,0,0,0,361.53,485l-11.7-51.78A132.91,132.91,0,0,1,235.12,201.79" transform="translate(-134.55 -117.6)"/></g></g></g></g><g class="cls-5"><g class="cls-3"><g class="cls-16"><g class="cls-5"><path class="cls-17" d="M349.83,433.25,361.53,485C461.73,462.4,524.61,362.83,502,262.62a186,186,0,0,0-181.43-145v53.09a132.91,132.91,0,0,1,29.28,262.56" transform="translate(-134.55 -117.6)"/></g></g></g></g></g></g></g><path class="cls-18" d="M421.52,193.64c-2.91-2.68-3.6-5.86-1.35-8.31l.3-.33,2.86,2.63-.22.24c-.94,1-.86,2.25.51,3.51s2.51,1.38,3.37.44a1.36,1.36,0,0,0,.16-1.84l-2.34-3.54c-1.46-2.21-1.66-3.93.15-5.91,2.21-2.41,5.2-2.22,8.08.42,2.72,2.5,3.1,5.57,1.06,7.79l-.27.29-2.75-2.53.19-.21c.75-.81.92-1.9-.33-3-1-1-2-1.19-2.83-.33a1.26,1.26,0,0,0-.13,1.71l2.43,3.82c1.47,2.31,1.26,4.1-.29,5.78C427.9,196.65,424.33,196.22,421.52,193.64Z" transform="translate(-134.55 -117.6)"/><path class="cls-18" d="M428.2,199.55l12.24-11,7.75,8.6-2.5,2.26-5-5.6L438,196.17l4.57,5.07-2.5,2.25-4.57-5.07-4.6,4.14Z" transform="translate(-134.55 -117.6)"/><path class="cls-18" d="M457.58,209.49l-2.73,2L452.18,208l-10.46,7.81-2.43-3.24,10.47-7.82-2.66-3.56,2.73-2Z" transform="translate(-134.55 -117.6)"/><path class="cls-18" d="M451.75,221.78l-4.25,2.57-2.09-3.46,14.08-8.53,3.65,6c2,3.32,1.4,6.63-1.56,8.42s-6.3.82-8.28-2.46Zm8.39-1.86-1.43-2.36L454.63,220l1.42,2.35a2.3,2.3,0,0,0,3.44,1C460.7,222.61,461.07,221.45,460.14,219.92Z" transform="translate(-134.55 -117.6)"/><path class="cls-18" d="M205.38,399.3l-13,10.07-7.08-9.16,2.66-2,4.61,5.95,2.81-2.17-4.17-5.4,2.66-2.06,4.17,5.4,4.9-3.78Z" transform="translate(-134.55 -117.6)"/><path class="cls-18" d="M176.84,387.2l2.87-1.83,2.39,3.75,11-7,2.17,3.42-11,7,2.38,3.75-2.87,1.83Z" transform="translate(-134.55 -117.6)"/><path class="cls-18" d="M183.57,375.38l4.43-2.25,1.83,3.61-14.69,7.46L172,377.93c-1.76-3.47-.9-6.72,2.18-8.29s6.34-.34,8.08,3.08Zm-8.5,1.23,1.24,2.46,4.26-2.16-1.24-2.46a2.3,2.3,0,0,0-3.36-1.2C174.71,373.89,174.26,375,175.07,376.61Z" transform="translate(-134.55 -117.6)"/><path class="cls-18" d="M237.43,179.58c-3.28,2.2-6.54,2.12-8.39-.63l-.25-.37,3.23-2.17.18.28c.77,1.15,2,1.35,3.53.32s1.93-2.12,1.22-3.17a1.35,1.35,0,0,0-1.75-.59l-4,1.44c-2.48.9-4.21.7-5.7-1.52-1.83-2.72-.94-5.58,2.3-7.76,3.07-2.06,6.14-1.71,7.81.79l.23.33-3.11,2.09-.16-.24c-.61-.92-1.63-1.34-3-.39-1.17.79-1.64,1.7-1,2.67a1.24,1.24,0,0,0,1.63.52l4.29-1.46c2.58-.88,4.27-.26,5.54,1.63C241.85,174.09,240.6,177.45,237.43,179.58Z" transform="translate(-134.55 -117.6)"/><path class="cls-18" d="M237.22,159.81l9.47-5.1,1.52,2.84-1.59,4.73c2.16-.76,4.67-.56,6.14,2.18s.05,6-3,7.69-6.2,1.3-7.92-1.81l3.29-1.77a2.19,2.19,0,0,0,3.13.75,2.08,2.08,0,0,0,1.09-2.89c-.58-1.08-1.6-1.38-3-.62l-2.2,1.18-1.48-2.76,1.26-4.39-5.18,2.78Z" transform="translate(-134.55 -117.6)"/><path class="cls-18" d="M272.35,144.49l1.11,3.22-4.2,1.46,4.27,12.34-3.83,1.33-4.27-12.35-4.2,1.45-1.12-3.22Z" transform="translate(-134.55 -117.6)"/><path class="cls-18" d="M277.61,143.12l3.29,12.69,7-1.83.84,3.26-11,2.84-4.13-16Z" transform="translate(-134.55 -117.6)"/><path class="cls-18" d="M294.91,156.51c-3.9.68-6.84-.72-7.41-4l-.07-.44,3.82-.67.06.33c.24,1.37,1.26,2,3.09,1.73,1.65-.28,2.62-1.14,2.41-2.4a1.36,1.36,0,0,0-1.36-1.24l-4.24-.32c-2.64-.19-4.13-1.08-4.59-3.72-.55-3.23,1.42-5.48,5.27-6.14,3.64-.63,6.3.94,6.82,3.9l.07.4-3.69.64,0-.28c-.19-1.09-1-1.89-2.62-1.6-1.39.24-2.19.88-2,2a1.27,1.27,0,0,0,1.28,1.14l4.51.41c2.72.25,4,1.51,4.4,3.76C301.18,153.3,298.66,155.86,294.91,156.51Z" transform="translate(-134.55 -117.6)"/></svg>